<mxfile host="app.diagrams.net" agent="Mozilla/5.0 (Macintosh; Intel Mac OS X 10_15_7) AppleWebKit/537.36 (KHTML, like Gecko) Chrome/131.0.0.0 Safari/537.36" version="26.0.6">
  <diagram name="Page-1" id="jGbWEOGqQRNeVDH_kExa">
    <mxGraphModel dx="2213" dy="864" grid="1" gridSize="10" guides="1" tooltips="1" connect="1" arrows="1" fold="1" page="1" pageScale="1" pageWidth="850" pageHeight="1100" math="0" shadow="0">
      <root>
        <mxCell id="0" />
        <mxCell id="1" parent="0" />
        <mxCell id="ksQm1QgzQyR4klBf2GgL-1" value="TENANT 1 DATABASE" style="shape=cylinder3;whiteSpace=wrap;html=1;boundedLbl=1;backgroundOutline=1;size=15;fontStyle=1" vertex="1" parent="1">
          <mxGeometry x="90" y="100" width="150" height="150" as="geometry" />
        </mxCell>
        <mxCell id="ksQm1QgzQyR4klBf2GgL-2" value="TENANT 2 DATABASE" style="shape=cylinder3;whiteSpace=wrap;html=1;boundedLbl=1;backgroundOutline=1;size=15;" vertex="1" parent="1">
          <mxGeometry x="260" y="100" width="150" height="150" as="geometry" />
        </mxCell>
        <mxCell id="ksQm1QgzQyR4klBf2GgL-3" value="TENANT 3 DATABASE" style="shape=cylinder3;whiteSpace=wrap;html=1;boundedLbl=1;backgroundOutline=1;size=15;" vertex="1" parent="1">
          <mxGeometry x="430" y="100" width="150" height="150" as="geometry" />
        </mxCell>
        <mxCell id="ksQm1QgzQyR4klBf2GgL-4" value="TENANT 4 DATABASE" style="shape=cylinder3;whiteSpace=wrap;html=1;boundedLbl=1;backgroundOutline=1;size=15;" vertex="1" parent="1">
          <mxGeometry x="600" y="100" width="150" height="150" as="geometry" />
        </mxCell>
        <mxCell id="ksQm1QgzQyR4klBf2GgL-5" value="APPLICATION" style="rounded=0;whiteSpace=wrap;html=1;" vertex="1" parent="1">
          <mxGeometry x="340" y="360" width="120" height="60" as="geometry" />
        </mxCell>
        <mxCell id="ksQm1QgzQyR4klBf2GgL-6" value="" style="endArrow=classic;startArrow=classic;html=1;rounded=0;entryX=0.5;entryY=1;entryDx=0;entryDy=0;entryPerimeter=0;" edge="1" parent="1" source="ksQm1QgzQyR4klBf2GgL-5" target="ksQm1QgzQyR4klBf2GgL-1">
          <mxGeometry width="50" height="50" relative="1" as="geometry">
            <mxPoint x="400" y="450" as="sourcePoint" />
            <mxPoint x="450" y="400" as="targetPoint" />
          </mxGeometry>
        </mxCell>
        <mxCell id="ksQm1QgzQyR4klBf2GgL-7" value="" style="endArrow=classic;startArrow=classic;html=1;rounded=0;entryX=0.5;entryY=1;entryDx=0;entryDy=0;entryPerimeter=0;exitX=0.5;exitY=0;exitDx=0;exitDy=0;" edge="1" parent="1" source="ksQm1QgzQyR4klBf2GgL-5" target="ksQm1QgzQyR4klBf2GgL-2">
          <mxGeometry width="50" height="50" relative="1" as="geometry">
            <mxPoint x="400" y="450" as="sourcePoint" />
            <mxPoint x="450" y="400" as="targetPoint" />
          </mxGeometry>
        </mxCell>
        <mxCell id="ksQm1QgzQyR4klBf2GgL-8" value="" style="endArrow=classic;startArrow=classic;html=1;rounded=0;entryX=0.5;entryY=1;entryDx=0;entryDy=0;entryPerimeter=0;exitX=0.5;exitY=0;exitDx=0;exitDy=0;" edge="1" parent="1" source="ksQm1QgzQyR4klBf2GgL-5" target="ksQm1QgzQyR4klBf2GgL-3">
          <mxGeometry width="50" height="50" relative="1" as="geometry">
            <mxPoint x="400" y="450" as="sourcePoint" />
            <mxPoint x="450" y="400" as="targetPoint" />
          </mxGeometry>
        </mxCell>
        <mxCell id="ksQm1QgzQyR4klBf2GgL-9" value="" style="endArrow=classic;startArrow=classic;html=1;rounded=0;entryX=0.5;entryY=1;entryDx=0;entryDy=0;entryPerimeter=0;exitX=0.75;exitY=0;exitDx=0;exitDy=0;" edge="1" parent="1" source="ksQm1QgzQyR4klBf2GgL-5" target="ksQm1QgzQyR4klBf2GgL-4">
          <mxGeometry width="50" height="50" relative="1" as="geometry">
            <mxPoint x="400" y="450" as="sourcePoint" />
            <mxPoint x="450" y="400" as="targetPoint" />
          </mxGeometry>
        </mxCell>
        <mxCell id="ksQm1QgzQyR4klBf2GgL-12" value="" style="endArrow=classic;html=1;rounded=0;entryX=0.5;entryY=1;entryDx=0;entryDy=0;exitX=0.5;exitY=0;exitDx=0;exitDy=0;exitPerimeter=0;" edge="1" parent="1" source="ksQm1QgzQyR4klBf2GgL-11" target="ksQm1QgzQyR4klBf2GgL-5">
          <mxGeometry width="50" height="50" relative="1" as="geometry">
            <mxPoint x="400" y="510" as="sourcePoint" />
            <mxPoint x="450" y="460" as="targetPoint" />
          </mxGeometry>
        </mxCell>
        <mxCell id="ksQm1QgzQyR4klBf2GgL-17" value="REQUEST" style="edgeLabel;html=1;align=center;verticalAlign=middle;resizable=0;points=[];" vertex="1" connectable="0" parent="ksQm1QgzQyR4klBf2GgL-12">
          <mxGeometry x="-0.269" y="3" relative="1" as="geometry">
            <mxPoint as="offset" />
          </mxGeometry>
        </mxCell>
        <mxCell id="ksQm1QgzQyR4klBf2GgL-14" value="" style="endArrow=classic;html=1;rounded=0;exitX=0.5;exitY=0;exitDx=0;exitDy=0;exitPerimeter=0;entryX=0.5;entryY=1;entryDx=0;entryDy=0;" edge="1" parent="1" source="ksQm1QgzQyR4klBf2GgL-13" target="ksQm1QgzQyR4klBf2GgL-5">
          <mxGeometry width="50" height="50" relative="1" as="geometry">
            <mxPoint x="400" y="510" as="sourcePoint" />
            <mxPoint x="450" y="460" as="targetPoint" />
          </mxGeometry>
        </mxCell>
        <mxCell id="ksQm1QgzQyR4klBf2GgL-18" value="REQUEST" style="edgeLabel;html=1;align=center;verticalAlign=middle;resizable=0;points=[];" vertex="1" connectable="0" parent="ksQm1QgzQyR4klBf2GgL-14">
          <mxGeometry x="-0.2725" relative="1" as="geometry">
            <mxPoint as="offset" />
          </mxGeometry>
        </mxCell>
        <mxCell id="ksQm1QgzQyR4klBf2GgL-15" value="" style="swimlane;startSize=0;" vertex="1" parent="1">
          <mxGeometry x="70" y="50" width="700" height="260" as="geometry" />
        </mxCell>
        <mxCell id="ksQm1QgzQyR4klBf2GgL-16" value="HORIZONTAL SHARDING, SAME SCHEMA, INDEX, TABLE" style="text;html=1;align=center;verticalAlign=middle;resizable=0;points=[];autosize=1;strokeColor=none;fillColor=none;" vertex="1" parent="1">
          <mxGeometry x="245" y="48" width="350" height="30" as="geometry" />
        </mxCell>
        <mxCell id="ksQm1QgzQyR4klBf2GgL-25" value="" style="endArrow=classic;html=1;rounded=0;entryX=0.5;entryY=1;entryDx=0;entryDy=0;exitX=0.5;exitY=0;exitDx=0;exitDy=0;exitPerimeter=0;" edge="1" parent="1" source="ksQm1QgzQyR4klBf2GgL-24" target="ksQm1QgzQyR4klBf2GgL-5">
          <mxGeometry width="50" height="50" relative="1" as="geometry">
            <mxPoint x="800" y="510" as="sourcePoint" />
            <mxPoint x="810" y="540" as="targetPoint" />
          </mxGeometry>
        </mxCell>
        <mxCell id="ksQm1QgzQyR4klBf2GgL-26" value="REQUEST" style="edgeLabel;html=1;align=center;verticalAlign=middle;resizable=0;points=[];" vertex="1" connectable="0" parent="ksQm1QgzQyR4klBf2GgL-25">
          <mxGeometry x="-0.269" y="3" relative="1" as="geometry">
            <mxPoint as="offset" />
          </mxGeometry>
        </mxCell>
        <mxCell id="ksQm1QgzQyR4klBf2GgL-28" value="" style="endArrow=classic;html=1;rounded=0;exitX=0.5;exitY=0;exitDx=0;exitDy=0;exitPerimeter=0;" edge="1" parent="1" source="ksQm1QgzQyR4klBf2GgL-27">
          <mxGeometry width="50" height="50" relative="1" as="geometry">
            <mxPoint x="800" y="510" as="sourcePoint" />
            <mxPoint x="400" y="420" as="targetPoint" />
          </mxGeometry>
        </mxCell>
        <mxCell id="ksQm1QgzQyR4klBf2GgL-29" value="REQUEST" style="edgeLabel;html=1;align=center;verticalAlign=middle;resizable=0;points=[];" vertex="1" connectable="0" parent="ksQm1QgzQyR4klBf2GgL-28">
          <mxGeometry x="-0.2725" relative="1" as="geometry">
            <mxPoint as="offset" />
          </mxGeometry>
        </mxCell>
        <mxCell id="ksQm1QgzQyR4klBf2GgL-32" value="TENANT 1" style="swimlane;whiteSpace=wrap;html=1;" vertex="1" parent="1">
          <mxGeometry x="-120" y="570" width="220" height="710" as="geometry" />
        </mxCell>
        <mxCell id="ksQm1QgzQyR4klBf2GgL-11" value="Customer(TENANT 1)" style="shape=umlActor;verticalLabelPosition=bottom;verticalAlign=top;html=1;outlineConnect=0;" vertex="1" parent="ksQm1QgzQyR4klBf2GgL-32">
          <mxGeometry x="100" y="70" width="30" height="60" as="geometry" />
        </mxCell>
        <mxCell id="ksQm1QgzQyR4klBf2GgL-22" value="www.tenant1.application.com" style="text;html=1;align=center;verticalAlign=middle;whiteSpace=wrap;rounded=0;" vertex="1" parent="ksQm1QgzQyR4klBf2GgL-32">
          <mxGeometry x="100" y="150" width="60" height="30" as="geometry" />
        </mxCell>
        <mxCell id="ksQm1QgzQyR4klBf2GgL-33" value="TENANT 2" style="swimlane;whiteSpace=wrap;html=1;" vertex="1" parent="1">
          <mxGeometry x="130" y="570" width="220" height="710" as="geometry" />
        </mxCell>
        <mxCell id="ksQm1QgzQyR4klBf2GgL-13" value="Customer(TENANT 2)" style="shape=umlActor;verticalLabelPosition=bottom;verticalAlign=top;html=1;outlineConnect=0;" vertex="1" parent="ksQm1QgzQyR4klBf2GgL-33">
          <mxGeometry x="90" y="70" width="30" height="60" as="geometry" />
        </mxCell>
        <mxCell id="ksQm1QgzQyR4klBf2GgL-23" value="www.tenant2.application.com" style="text;html=1;align=center;verticalAlign=middle;whiteSpace=wrap;rounded=0;" vertex="1" parent="ksQm1QgzQyR4klBf2GgL-33">
          <mxGeometry x="90" y="150" width="60" height="30" as="geometry" />
        </mxCell>
        <mxCell id="ksQm1QgzQyR4klBf2GgL-34" value="TENANT 3" style="swimlane;whiteSpace=wrap;html=1;" vertex="1" parent="1">
          <mxGeometry x="390" y="570" width="220" height="710" as="geometry" />
        </mxCell>
        <mxCell id="ksQm1QgzQyR4klBf2GgL-24" value="Customer(TENANT 3)" style="shape=umlActor;verticalLabelPosition=bottom;verticalAlign=top;html=1;outlineConnect=0;" vertex="1" parent="ksQm1QgzQyR4klBf2GgL-34">
          <mxGeometry x="70" y="70" width="30" height="60" as="geometry" />
        </mxCell>
        <mxCell id="ksQm1QgzQyR4klBf2GgL-30" value="www.tenant3.application.com" style="text;html=1;align=center;verticalAlign=middle;whiteSpace=wrap;rounded=0;" vertex="1" parent="ksQm1QgzQyR4klBf2GgL-34">
          <mxGeometry x="70" y="150" width="60" height="30" as="geometry" />
        </mxCell>
        <mxCell id="ksQm1QgzQyR4klBf2GgL-35" value="TENANT 4" style="swimlane;whiteSpace=wrap;html=1;" vertex="1" parent="1">
          <mxGeometry x="660" y="570" width="220" height="710" as="geometry" />
        </mxCell>
        <mxCell id="ksQm1QgzQyR4klBf2GgL-27" value="Customer(TENANT 4)" style="shape=umlActor;verticalLabelPosition=bottom;verticalAlign=top;html=1;outlineConnect=0;" vertex="1" parent="ksQm1QgzQyR4klBf2GgL-35">
          <mxGeometry x="99" y="70" width="30" height="60" as="geometry" />
        </mxCell>
        <mxCell id="ksQm1QgzQyR4klBf2GgL-31" value="www.tenant4.application.com" style="text;html=1;align=center;verticalAlign=middle;whiteSpace=wrap;rounded=0;" vertex="1" parent="ksQm1QgzQyR4klBf2GgL-35">
          <mxGeometry x="100" y="150" width="60" height="30" as="geometry" />
        </mxCell>
        <mxCell id="ksQm1QgzQyR4klBf2GgL-38" value="PRIMARY DATABASE" style="shape=cylinder3;whiteSpace=wrap;html=1;boundedLbl=1;backgroundOutline=1;size=15;fillColor=#ffe6cc;strokeColor=#d79b00;" vertex="1" parent="1">
          <mxGeometry x="-100" y="100" width="150" height="150" as="geometry" />
        </mxCell>
        <mxCell id="ksQm1QgzQyR4klBf2GgL-40" value="" style="endArrow=classic;startArrow=classic;html=1;rounded=0;entryX=0.5;entryY=1;entryDx=0;entryDy=0;entryPerimeter=0;exitX=0;exitY=0;exitDx=0;exitDy=0;" edge="1" parent="1" source="ksQm1QgzQyR4klBf2GgL-5" target="ksQm1QgzQyR4klBf2GgL-38">
          <mxGeometry width="50" height="50" relative="1" as="geometry">
            <mxPoint x="350" y="410" as="sourcePoint" />
            <mxPoint x="400" y="360" as="targetPoint" />
          </mxGeometry>
        </mxCell>
      </root>
    </mxGraphModel>
  </diagram>
</mxfile>
